HIERARCHY
ROOT Hips
{
	OFFSET 0.000000 0.000000 0.000000
	CHANNELS 6 Xposition Yposition Zposition Xrotation Yrotation Zrotation
	JOINT Thigh.L
	{
		OFFSET 0.054513 0.026394 -0.093627
		CHANNELS 3 Xrotation Yrotation Zrotation
		JOINT Shin.L
		{
			OFFSET 0.059753 0.005796 -0.405128
			CHANNELS 3 Xrotation Yrotation Zrotation
			JOINT Foot.L
			{
				OFFSET -0.041989 0.030616 -0.430180
				CHANNELS 3 Xrotation Yrotation Zrotation
				JOINT Toe.L
				{
					OFFSET 0.047945 -0.125394 -0.063325
					CHANNELS 3 Xrotation Yrotation Zrotation
					End Site
					{
						OFFSET 0.000000 0.050000 0.000000
					}
				}
			}
		}
	}
	JOINT Thigh.R
	{
		OFFSET -0.059577 0.020709 -0.106207
		CHANNELS 3 Xrotation Yrotation Zrotation
		JOINT Shin.R
		{
			OFFSET -0.048841 0.013773 -0.386634
			CHANNELS 3 Xrotation Yrotation Zrotation
			JOINT Foot.R
			{
				OFFSET 0.014128 0.018908 -0.439038
				CHANNELS 3 Xrotation Yrotation Zrotation
				JOINT Toe.R
				{
					OFFSET -0.039477 -0.126274 -0.063258
					CHANNELS 3 Xrotation Yrotation Zrotation
					End Site
					{
						OFFSET 0.000000 0.050000 0.000000
					}
				}
			}
		}
	}
	JOINT Spine
	{
		OFFSET -0.002618 0.027802 0.112407
		CHANNELS 3 Xrotation Yrotation Zrotation
		JOINT Spine.2
		{
			OFFSET 0.008913 0.007026 0.139391
			CHANNELS 3 Xrotation Yrotation Zrotation
			JOINT Chest
			{
				OFFSET -0.010708 -0.022872 0.055817
				CHANNELS 3 Xrotation Yrotation Zrotation
				JOINT Neck
				{
					OFFSET -0.012073 0.025707 0.168862
					CHANNELS 3 Xrotation Yrotation Zrotation
					JOINT Head
					{
						OFFSET 0.025302 -0.021399 0.170050
						CHANNELS 3 Xrotation Yrotation Zrotation
						End Site
						{
							OFFSET 0.000000 0.050000 0.000000
						}
					}
				}
				JOINT Clavicle.L
				{
					OFFSET 0.047025 0.004745 0.086860
					CHANNELS 3 Xrotation Yrotation Zrotation
					JOINT UpperArm.L
					{
						OFFSET 0.125677 0.014014 0.057234
						CHANNELS 3 Xrotation Yrotation Zrotation
						JOINT ForeArm.L
						{
							OFFSET 0.266336 0.042710 -0.074588
							CHANNELS 3 Xrotation Yrotation Zrotation
							JOINT Hand.L
							{
								OFFSET 0.270174 0.000769 0.021991
								CHANNELS 3 Xrotation Yrotation Zrotation
								JOINT Thumb1.L
								{
									OFFSET 0.154604 0.000340 0.009735
									CHANNELS 3 Xrotation Yrotation Zrotation
									JOINT Thumb2.L
									{
										OFFSET 0.029901 0.000085 0.002434
										CHANNELS 3 Xrotation Yrotation Zrotation
										End Site
										{
											OFFSET 0.024917 0.000071 0.002028
										}
									}
								}
								JOINT Index1.L
								{
									OFFSET 0.137604 0.000340 0.009735
									CHANNELS 3 Xrotation Yrotation Zrotation
									JOINT Index2.L
									{
										OFFSET 0.029901 0.000085 0.002434
										CHANNELS 3 Xrotation Yrotation Zrotation
										JOINT Index3.L
										{
											OFFSET 0.021927 0.000062 0.001785
											CHANNELS 3 Xrotation Yrotation Zrotation
											End Site
											{
												OFFSET 0.017941 0.000051 0.001460
											}
										}
									}
								}
								JOINT Middle1.L
								{
									OFFSET 0.119604 0.000340 0.009735
									CHANNELS 3 Xrotation Yrotation Zrotation
									JOINT Middle2.L
									{
										OFFSET 0.030898 0.000088 0.002515
										CHANNELS 3 Xrotation Yrotation Zrotation
										JOINT Middle3.L
										{
											OFFSET 0.021927 0.000062 0.001785
											CHANNELS 3 Xrotation Yrotation Zrotation
											End Site
											{
												OFFSET 0.017941 0.000051 0.001460
											}
										}
									}
								}
								JOINT Ring1.L
								{
									OFFSET 0.101604 0.000340 0.009735
									CHANNELS 3 Xrotation Yrotation Zrotation
									JOINT Ring2.L
									{
										OFFSET 0.028904 0.000082 0.002353
										CHANNELS 3 Xrotation Yrotation Zrotation
										JOINT Ring3.L
										{
											OFFSET 0.019934 0.000057 0.001623
											CHANNELS 3 Xrotation Yrotation Zrotation
											End Site
											{
												OFFSET 0.016944 0.000048 0.001379
											}
										}
									}
								}
								JOINT Pinky1.L
								{
									OFFSET 0.085604 0.000340 0.009735
									CHANNELS 3 Xrotation Yrotation Zrotation
									JOINT Pinky2.L
									{
										OFFSET 0.023921 0.000068 0.001947
										CHANNELS 3 Xrotation Yrotation Zrotation
										JOINT Pinky3.L
										{
											OFFSET 0.016944 0.000048 0.001379
											CHANNELS 3 Xrotation Yrotation Zrotation
											End Site
											{
												OFFSET 0.013954 0.000040 0.001136
											}
										}
									}
								}
							}
						}
					}
				}
				JOINT Clavicle.R
				{
					OFFSET -0.047939 0.010881 0.085955
					CHANNELS 3 Xrotation Yrotation Zrotation
					JOINT UpperArm.R
					{
						OFFSET -0.109001 0.010246 0.053503
						CHANNELS 3 Xrotation Yrotation Zrotation
						JOINT ForeArm.R
						{
							OFFSET -0.284371 0.027673 -0.039200
							CHANNELS 3 Xrotation Yrotation Zrotation
							JOINT Hand.R
							{
								OFFSET -0.266572 0.014179 -0.005525
								CHANNELS 3 Xrotation Yrotation Zrotation
								JOINT Thumb1.R
								{
									OFFSET -0.154805 0.006373 -0.002483
									CHANNELS 3 Xrotation Yrotation Zrotation
									JOINT Thumb2.R
									{
										OFFSET -0.029951 0.001593 -0.000621
										CHANNELS 3 Xrotation Yrotation Zrotation
										End Site
										{
											OFFSET -0.024959 0.001328 -0.000517
										}
									}
								}
								JOINT Index1.R
								{
									OFFSET -0.137805 0.006373 -0.002483
									CHANNELS 3 Xrotation Yrotation Zrotation
									JOINT Index2.R
									{
										OFFSET -0.029951 0.001593 -0.000621
										CHANNELS 3 Xrotation Yrotation Zrotation
										JOINT Index3.R
										{
											OFFSET -0.021964 0.001168 -0.000455
											CHANNELS 3 Xrotation Yrotation Zrotation
											End Site
											{
												OFFSET -0.017971 0.000956 -0.000372
											}
										}
									}
								}
								JOINT Middle1.R
								{
									OFFSET -0.119805 0.006373 -0.002483
									CHANNELS 3 Xrotation Yrotation Zrotation
									JOINT Middle2.R
									{
										OFFSET -0.030950 0.001646 -0.000641
										CHANNELS 3 Xrotation Yrotation Zrotation
										JOINT Middle3.R
										{
											OFFSET -0.021964 0.001168 -0.000455
											CHANNELS 3 Xrotation Yrotation Zrotation
											End Site
											{
												OFFSET -0.017971 0.000956 -0.000372
											}
										}
									}
								}
								JOINT Ring1.R
								{
									OFFSET -0.101805 0.006373 -0.002483
									CHANNELS 3 Xrotation Yrotation Zrotation
									JOINT Ring2.R
									{
										OFFSET -0.028953 0.001540 -0.000600
										CHANNELS 3 Xrotation Yrotation Zrotation
										JOINT Ring3.R
										{
											OFFSET -0.019967 0.001062 -0.000414
											CHANNELS 3 Xrotation Yrotation Zrotation
											End Site
											{
												OFFSET -0.016972 0.000903 -0.000352
											}
										}
									}
								}
								JOINT Pinky1.R
								{
									OFFSET -0.085805 0.006373 -0.002483
									CHANNELS 3 Xrotation Yrotation Zrotation
									JOINT Pinky2.R
									{
										OFFSET -0.023961 0.001275 -0.000497
										CHANNELS 3 Xrotation Yrotation Zrotation
										JOINT Pinky3.R
										{
											OFFSET -0.016972 0.000903 -0.000352
											CHANNELS 3 Xrotation Yrotation Zrotation
											End Site
											{
												OFFSET -0.013977 0.000743 -0.000290
											}
										}
									}
								}
							}
						}
					}
				}
			}
		}
	}
}
MOTION
Frames: 4
Frame Time: 0.04166667
0.046087 -0.064403 1.444401 6.308220 -0.968650 2.571460 -31.611615 -7.010578 -1.089766 33.859735 8.684992 1.238019 -23.589158 -10.016114 3.800199 0.321247 -0.715726 -0.637389 -34.823309 4.390250 0.937328 41.375018 -6.848235 -0.517697 -20.646721 8.771419 -7.022715 -1.922918 -2.845061 0.286639 41.337796 -0.259988 0.040802 -10.572905 -1.475512 -1.553685 6.331750 -0.918696 -0.518791 -9.580786 5.956362 3.809902 -3.605873 -2.078721 0.465019 -5.029642 14.766702 -21.304193 7.417725 32.160250 -29.934863 -12.655045 3.780304 -59.197423 -37.695776 -4.973642 -7.890678 0.000000 0.000000 0.000000 0.000000 0.000000 0.000000 0.000000 0.000000 0.000000 0.000000 0.000000 0.000000 0.000000 0.000000 0.000000 0.000000 0.000000 0.000000 0.000000 0.000000 0.000000 0.000000 0.000000 0.000000 0.000000 0.000000 0.000000 0.000000 0.000000 0.000000 0.000000 0.000000 0.000000 0.000000 0.000000 0.000000 0.000000 0.000000 0.000000 0.000000 0.000000 0.000000 -2.429564 -14.646360 23.579852 6.997551 -30.014496 26.098430 -17.397534 -1.746892 61.774547 -29.683407 -2.775288 5.587231 0.000000 0.000000 0.000000 0.000000 0.000000 0.000000 0.000000 0.000000 0.000000 0.000000 0.000000 0.000000 0.000000 0.000000 0.000000 0.000000 0.000000 0.000000 0.000000 0.000000 0.000000 0.000000 0.000000 0.000000 0.000000 0.000000 0.000000 0.000000 0.000000 0.000000 0.000000 0.000000 0.000000 0.000000 0.000000 0.000000 0.000000 0.000000 0.000000 0.000000 0.000000 0.000000
0.044119 -0.063024 1.460109 4.910296 -1.016472 2.282795 -26.645586 -6.533152 -0.062981 28.901235 7.684199 1.504366 -21.481766 -8.755382 4.370957 0.324218 -0.716541 -0.543187 -29.658653 4.049117 0.231091 35.988345 -5.695617 -0.001381 -17.984232 7.445369 -7.544794 -1.741875 -2.715380 0.230736 37.997129 -0.394320 0.074722 -10.277244 -0.917937 -1.579114 6.854716 -1.030776 -0.506072 -8.255132 5.718449 3.642048 -2.066636 -1.985057 1.300869 -4.392412 15.601963 -19.571817 8.965888 33.090174 -29.617421 -11.192188 3.974628 -59.913551 -39.020147 -4.329352 -8.085419 0.000000 0.000000 0.000000 0.000000 0.000000 0.000000 0.000000 0.000000 0.000000 0.000000 0.000000 0.000000 0.000000 0.000000 0.000000 0.000000 0.000000 0.000000 0.000000 0.000000 0.000000 0.000000 0.000000 0.000000 0.000000 0.000000 0.000000 0.000000 0.000000 0.000000 0.000000 0.000000 0.000000 0.000000 0.000000 0.000000 0.000000 0.000000 0.000000 0.000000 0.000000 0.000000 -2.109894 -15.468015 21.958065 8.662609 -30.794813 25.723640 -16.026180 -1.835422 62.723437 -29.939981 -3.347573 5.626224 0.000000 0.000000 0.000000 0.000000 0.000000 0.000000 0.000000 0.000000 0.000000 0.000000 0.000000 0.000000 0.000000 0.000000 0.000000 0.000000 0.000000 0.000000 0.000000 0.000000 0.000000 0.000000 0.000000 0.000000 0.000000 0.000000 0.000000 0.000000 0.000000 0.000000 0.000000 0.000000 0.000000 0.000000 0.000000 0.000000 0.000000 0.000000 0.000000 0.000000 0.000000 0.000000
0.042574 -0.059199 1.474203 3.512984 -1.047577 2.167625 -21.535065 -6.016246 0.904169 23.845370 6.671730 1.663531 -19.501754 -7.564572 4.821794 0.343583 -0.779965 -0.517603 -24.169071 3.682325 -0.360473 30.347592 -4.603887 0.546895 -15.679296 6.143914 -7.970983 -1.476067 -2.637371 0.214244 34.032357 -0.480376 0.117765 -9.771351 -0.331902 -1.573693 7.298553 -1.238447 -0.539491 -6.401790 5.613650 3.440311 -0.756355 -2.060352 2.418458 -4.093624 15.897660 -17.505678 10.993062 34.461114 -29.500528 -9.364088 4.331086 -61.085405 -40.146688 -3.988140 -8.190241 0.000000 0.000000 0.000000 0.000000 0.000000 0.000000 0.000000 0.000000 0.000000 0.000000 0.000000 0.000000 0.000000 0.000000 0.000000 0.000000 0.000000 0.000000 0.000000 0.000000 0.000000 0.000000 0.000000 0.000000 0.000000 0.000000 0.000000 0.000000 0.000000 0.000000 0.000000 0.000000 0.000000 0.000000 0.000000 0.000000 0.000000 0.000000 0.000000 0.000000 0.000000 0.000000 -2.079935 -15.748170 20.060320 10.804127 -32.217328 25.534569 -14.502007 -2.097805 64.068771 -30.057063 -3.529217 5.624114 0.000000 0.000000 0.000000 0.000000 0.000000 0.000000 0.000000 0.000000 0.000000 0.000000 0.000000 0.000000 0.000000 0.000000 0.000000 0.000000 0.000000 0.000000 0.000000 0.000000 0.000000 0.000000 0.000000 0.000000 0.000000 0.000000 0.000000 0.000000 0.000000 0.000000 0.000000 0.000000 0.000000 0.000000 0.000000 0.000000 0.000000 0.000000 0.000000 0.000000 0.000000 0.000000
0.043941 -0.060737 1.486236 2.044796 -1.115004 2.116943 -17.020529 -5.635586 1.721648 19.321668 5.748380 1.572868 -17.078081 -6.237520 5.257943 0.346273 -0.844046 -0.496942 -19.387075 3.309815 -0.881006 25.433392 -3.801261 1.170442 -13.004440 4.981758 -8.443668 -1.314905 -2.599795 0.227709 30.637067 -0.479893 0.148577 -9.247047 -0.035582 -1.571546 7.567359 -1.332886 -0.585688 -4.868931 5.300680 3.347217 0.523540 -2.100374 3.225061 -3.590976 16.455059 -15.629146 12.637506 35.560796 -29.136123 -7.874604 4.407674 -61.888150 -40.876559 -3.262120 -8.265013 0.000000 0.000000 0.000000 0.000000 0.000000 0.000000 0.000000 0.000000 0.000000 0.000000 0.000000 0.000000 0.000000 0.000000 0.000000 0.000000 0.000000 0.000000 0.000000 0.000000 0.000000 0.000000 0.000000 0.000000 0.000000 0.000000 0.000000 0.000000 0.000000 0.000000 0.000000 0.000000 0.000000 0.000000 0.000000 0.000000 0.000000 0.000000 0.000000 0.000000 0.000000 0.000000 -1.843906 -16.331998 18.346604 12.597217 -33.294597 25.221064 -13.305311 -2.180057 65.522442 -30.671819 -4.199273 5.492525 0.000000 0.000000 0.000000 0.000000 0.000000 0.000000 0.000000 0.000000 0.000000 0.000000 0.000000 0.000000 0.000000 0.000000 0.000000 0.000000 0.000000 0.000000 0.000000 0.000000 0.000000 0.000000 0.000000 0.000000 0.000000 0.000000 0.000000 0.000000 0.000000 0.000000 0.000000 0.000000 0.000000 0.000000 0.000000 0.000000 0.000000 0.000000 0.000000 0.000000 0.000000 0.000000
